<!--Scalable Vector Graphic-->
<svg xmlns="http://www.w3.org/2000/svg" 
     xmlns:xlink="http://www.w3.org/1999/xlink"  
     width="400" 
     height="400" 
     viewBox="0 0 400 400">
	 <defs>
	 	<clipPath id="waffle">
			<circle cx="200" cy="200" r="140"></circle>
		</clipPath>
	 	<clipPath id="waffle2">
			<circle cx="200" cy="200" r="93"></circle>
		</clipPath>
	 	<clipPath id="waffle3">
			<circle cx="200" cy="200" r="200"></circle>
		</clipPath>
		<clipPath id="square">
			<rect x="0" y="0" width="400" height="400" transform="rotate(-30 200 200)"></rect>
		</clipPath>
	 </defs>
	 <g>
		 <rect x="0" y="0" width="400" height="400" fill="#eee"></rect>
		 <rect x="50" y="200" width="300" height="2000" fill="#ddd" clip-path="url(#square)" transform="rotate(-60 200 200)"></rect>
		 <circle cx="200" cy="200" r="150" fill="#ffc980"></circle>
		 <g clip-path="url(#waffle)" fill="#e8b97c" transform="rotate(0 200 200)">
			 <rect x="205" y="205" width="40" height="40"></rect>
			 <rect x="205" y="255" width="40" height="40"></rect>
			 <rect x="255" y="205" width="40" height="40"></rect>
			 <rect x="255" y="255" width="40" height="40"></rect>
			 <rect x="205" y="155" width="40" height="40"></rect>
			 <rect x="205" y="105" width="40" height="40"></rect>
			 <rect x="255" y="155" width="40" height="40"></rect>
			 <rect x="255" y="105" width="40" height="40"></rect>
			 <rect x="155" y="205" width="40" height="40"></rect>
			 <rect x="105" y="205" width="40" height="40"></rect>
			 <rect x="155" y="255" width="40" height="40"></rect>
			 <rect x="105" y="255" width="40" height="40"></rect>
			 <rect x="155" y="155" width="40" height="40"></rect>
			 <rect x="155" y="105" width="40" height="40"></rect>
			 <rect x="105" y="155" width="40" height="40"></rect>
			 <rect x="105" y="105" width="40" height="40"></rect>
			 
			 <rect x="105" y="55" width="40" height="40"></rect>
			 <rect x="155" y="55" width="40" height="40"></rect>
			 <rect x="205" y="55" width="40" height="40"></rect>
			 <rect x="255" y="55" width="40" height="40"></rect>
			 
			 <rect x="105" y="305" width="40" height="40"></rect>
			 <rect x="155" y="305" width="40" height="40"></rect>
			 <rect x="205" y="305" width="40" height="40"></rect>
			 <rect x="255" y="305" width="40" height="40"></rect>
			 
			 <rect x="305" y="105" width="40" height="40"></rect>
			 <rect x="305" y="155" width="40" height="40"></rect>
			 <rect x="305" y="205" width="40" height="40"></rect>
			 <rect x="305" y="255" width="40" height="40"></rect>
			 
			 <rect x="55" y="105" width="40" height="40"></rect>
			 <rect x="55" y="155" width="40" height="40"></rect>
			 <rect x="55" y="205" width="40" height="40"></rect>
			 <rect x="55" y="255" width="40" height="40"></rect>
		 </g>
	 </g>
</svg>
