<?xml version="1.0" encoding="utf-8"?>
<!-- Generator: Adobe Illustrator 22.0.1, SVG Export Plug-In . SVG Version: 6.00 Build 0)  -->
<svg version="1.1" id="Layer_1" xmlns="http://www.w3.org/2000/svg" xmlns:xlink="http://www.w3.org/1999/xlink" x="0px" y="0px"
	 viewBox="0 0 400 400" style="enable-background:new 0 0 400 400;" xml:space="preserve">
<style type="text/css">
	.st0{fill:#EEEEEE;}
	.st1{fill:#DDDDDD;}
	.st2{fill:#FFC980;}
	.st3{clip-path:url(#SVGID_2_);}
	.st4{fill:#E8B97C;}
	.st5{fill:#E7719F;}
	.st6{fill:none;stroke:#FFFFFF;stroke-width:22;stroke-linecap:round;stroke-linejoin:round;stroke-miterlimit:10;}
	.st7{fill:none;stroke:#000000;stroke-width:0.5;stroke-miterlimit:10;}
	.st8{fill:#FFFFFF;}
	.st9{display:none;}
	.st10{display:inline;stroke:#000000;stroke-miterlimit:10;}
</style>
<g>
	<rect class="st0" width="400" height="400"/>
	<polygon class="st1" points="275,70.1 125,329.9 246.4,400 400,400 400,142.3 	"/>
	<circle class="st2" cx="200" cy="200" r="150"/>
	<g>
		<g>
			<defs>
				<circle id="SVGID_1_" cx="200" cy="200" r="140"/>
			</defs>
			<clipPath id="SVGID_2_">
				<use xlink:href="#SVGID_1_"  style="overflow:visible;"/>
			</clipPath>
			<g transform="rotate(0 200 200)" class="st3">
				<rect x="205" y="205" class="st4" width="40" height="40"/>
				<rect x="205" y="255" class="st4" width="40" height="40"/>
				<rect x="255" y="205" class="st4" width="40" height="40"/>
				<rect x="255" y="255" class="st4" width="40" height="40"/>
				<rect x="205" y="155" class="st4" width="40" height="40"/>
				<rect x="205" y="105" class="st4" width="40" height="40"/>
				<rect x="255" y="155" class="st4" width="40" height="40"/>
				<rect x="255" y="105" class="st4" width="40" height="40"/>
				<rect x="155" y="205" class="st4" width="40" height="40"/>
				<rect x="105" y="205" class="st4" width="40" height="40"/>
				<rect x="155" y="255" class="st4" width="40" height="40"/>
				<rect x="105" y="255" class="st4" width="40" height="40"/>
				<rect x="155" y="155" class="st4" width="40" height="40"/>
				<rect x="155" y="105" class="st4" width="40" height="40"/>
				<rect x="105" y="155" class="st4" width="40" height="40"/>
				<rect x="105" y="105" class="st4" width="40" height="40"/>
				<rect x="105" y="55" class="st4" width="40" height="40"/>
				<rect x="155" y="55" class="st4" width="40" height="40"/>
				<rect x="205" y="55" class="st4" width="40" height="40"/>
				<rect x="255" y="55" class="st4" width="40" height="40"/>
				<rect x="105" y="305" class="st4" width="40" height="40"/>
				<rect x="155" y="305" class="st4" width="40" height="40"/>
				<rect x="205" y="305" class="st4" width="40" height="40"/>
				<rect x="255" y="305" class="st4" width="40" height="40"/>
				<rect x="305" y="105" class="st4" width="40" height="40"/>
				<rect x="305" y="155" class="st4" width="40" height="40"/>
				<rect x="305" y="205" class="st4" width="40" height="40"/>
				<rect x="305" y="255" class="st4" width="40" height="40"/>
				<rect x="55" y="105" class="st4" width="40" height="40"/>
				<rect x="55" y="155" class="st4" width="40" height="40"/>
				<rect x="55" y="205" class="st4" width="40" height="40"/>
				<rect x="55" y="255" class="st4" width="40" height="40"/>
			</g>
		</g>
	</g>
</g>
<g>
	<polygon class="st5" points="225,0 87.5,0 42.6,203 307,94.9 	"/>
	<line class="st6" x1="50" y1="200" x2="307" y2="94.9"/>
	<polygon class="st5" points="22.5,147.5 87.5,0 188.5,0 	"/>
	<line class="st7" x1="62.8" y1="111.7" x2="203.9" y2="-13.7"/>
	<circle class="st8" cx="22.5" cy="147.5" r="22.5"/>
</g>
<g class="st9">
	<path class="st10" d="M0,200v200h200C89.5,400,0,310.5,0,200z"/>
	<path class="st10" d="M200,400h200V200C400,310.5,310.5,400,200,400z"/>
	<path class="st10" d="M200,0H0v200C0,89.5,89.5,0,200,0z"/>
	<path class="st10" d="M200,0c110.5,0,200,89.5,200,200V0H200z"/>
</g>
</svg>
